<svg width="79" height="79" viewBox="0 0 79 79" fill="none" xmlns="http://www.w3.org/2000/svg">
<path d="M58.75 43.0833H43.0833V58.75H35.25V43.0833H19.5833V35.25H35.25V19.5833H43.0833V35.25H58.75M39.1667 0C34.0232 0 28.9301 1.01308 24.1782 2.98138C19.4263 4.94969 15.1086 7.83469 11.4717 11.4717C4.12648 18.8168 0 28.779 0 39.1667C0 49.5543 4.12648 59.5165 11.4717 66.8617C15.1086 70.4986 19.4263 73.3836 24.1782 75.352C28.9301 77.3203 34.0232 78.3333 39.1667 78.3333C49.5543 78.3333 59.5165 74.2069 66.8617 66.8617C74.2069 59.5165 78.3333 49.5543 78.3333 39.1667C78.3333 34.0232 77.3203 28.9301 75.352 24.1782C73.3836 19.4263 70.4986 15.1086 66.8617 11.4717C63.2247 7.83469 58.907 4.94969 54.1551 2.98138C49.4032 1.01308 44.3101 0 39.1667 0Z" fill="#F24822"/>
</svg>
