<svg width="24" height="24" viewBox="0 0 24 24" fill="none" xmlns="http://www.w3.org/2000/svg">
<path d="M5 21H19C20.1 21 21 20.1 21 19V12H19V19H5V5H12V3H5C3.9 3 3 3.9 3 5V19C3 20.1 3.9 21 5 21Z" fill="white"/>
<path d="M7 13V16C7 16.55 7.45 17 8 17H11C11.27 17 11.52 16.89 11.71 16.71L20.71 7.71001C20.8027 7.6175 20.8763 7.50761 20.9264 7.38664C20.9766 7.26566 21.0024 7.13598 21.0024 7.00501C21.0024 6.87404 20.9766 6.74436 20.9264 6.62339C20.8763 6.50241 20.8027 6.39253 20.71 6.30001L17.71 3.30001C17.6175 3.20731 17.5076 3.13376 17.3866 3.08358C17.2657 3.0334 17.136 3.00757 17.005 3.00757C16.874 3.00757 16.7444 3.0334 16.6234 3.08358C16.5024 3.13376 16.3925 3.20731 16.3 3.30001L7.29 12.29C7.19732 12.3835 7.12399 12.4943 7.07423 12.6161C7.02447 12.7379 6.99924 12.8684 7 13ZM17 5.41001L18.59 7.00001L17.5 8.09001L15.91 6.50001L17 5.41001ZM9 13.41L14.5 7.91001L16.09 9.50001L10.59 15H9V13.41Z" fill="white"/>
</svg>
