<svg width="87" height="118" viewBox="0 0 87 118" fill="none" xmlns="http://www.w3.org/2000/svg">
<path d="M8.99962 106.6C8.79962 106.6 8.69962 106.5 8.69962 106.3V90.9041C8.69962 90.7041 8.79962 90.6041 8.99962 90.6041H16.3196C16.5116 90.6041 16.6716 90.6681 16.7996 90.7961L19.1996 93.1961C19.3356 93.3321 19.4036 93.4921 19.4036 93.6761V103.516C19.4036 103.708 19.3356 103.868 19.1996 103.996L16.7996 106.396C16.6716 106.532 16.5116 106.6 16.3196 106.6H8.99962ZM12.7076 103.396H14.9036C15.2396 103.396 15.4076 103.172 15.4076 102.724V94.4801C15.4076 94.0241 15.2396 93.7961 14.9036 93.7961H12.7076V103.396ZM25.1899 106.6C25.0059 106.6 24.8459 106.532 24.7099 106.396L22.3099 103.996C22.1739 103.868 22.1059 103.708 22.1059 103.516V96.4841C22.1059 96.2921 22.1739 96.1321 22.3099 96.0041L24.7099 93.6041C24.8459 93.4681 25.0059 93.4001 25.1899 93.4001H28.8259C29.0179 93.4001 29.1779 93.4681 29.3059 93.6041L31.7059 96.0041C31.8419 96.1321 31.9099 96.2921 31.9099 96.4841V103.516C31.9099 103.708 31.8419 103.868 31.7059 103.996L29.3059 106.396C29.1779 106.532 29.0179 106.6 28.8259 106.6H25.1899ZM26.5939 103.804H27.4339C27.6899 103.804 27.8659 103.752 27.9619 103.648C28.0579 103.544 28.1059 103.36 28.1059 103.096V96.9041C28.1059 96.6401 28.0579 96.4561 27.9619 96.3521C27.8659 96.2481 27.6899 96.1961 27.4339 96.1961H26.5939C26.3299 96.1961 26.1499 96.2481 26.0539 96.3521C25.9579 96.4561 25.9099 96.6401 25.9099 96.9041V103.096C25.9099 103.36 25.9579 103.544 26.0539 103.648C26.1499 103.752 26.3299 103.804 26.5939 103.804ZM35.0055 106.6C34.8055 106.6 34.7055 106.5 34.7055 106.3V93.7001C34.7055 93.5001 34.8055 93.4001 35.0055 93.4001H41.4255C41.6095 93.4001 41.7695 93.4681 41.9055 93.6041L44.3055 96.0041C44.4415 96.1321 44.5095 96.2921 44.5095 96.4841V106.3C44.5095 106.5 44.4095 106.6 44.2095 106.6H41.0055C40.8055 106.6 40.7055 106.5 40.7055 106.3V96.9641C40.7055 96.5881 40.5175 96.4001 40.1415 96.4001H38.5095V106.3C38.5095 106.5 38.4095 106.6 38.2095 106.6H35.0055ZM52.6909 106.6C52.6109 106.6 52.5229 106.588 52.4269 106.564C52.3389 106.54 52.2549 106.52 52.1749 106.504L50.0389 105.976L47.5909 105.16C47.3509 105.08 47.2309 104.848 47.2309 104.464V96.4841C47.2309 96.2921 47.2989 96.1321 47.4349 96.0041L49.8349 93.6041C49.9709 93.4681 50.1309 93.4001 50.3149 93.4001H54.1549C54.3389 93.4001 54.4989 93.4681 54.6349 93.6041L57.0349 96.0041C57.1709 96.1321 57.2389 96.2921 57.2389 96.4841V101.404H50.7949L50.7109 103L52.4149 103.564L55.4749 103.78C55.6109 103.804 55.6789 103.896 55.6789 104.056V106.3C55.6789 106.5 55.5789 106.6 55.3789 106.6H52.6909ZM52.2109 99.5201H52.4389C52.8309 99.5201 53.1429 99.3721 53.3749 99.0761C53.6149 98.7801 53.7349 98.3801 53.7349 97.8761V97.6361C53.7349 97.1401 53.6149 96.7441 53.3749 96.4481C53.1429 96.1521 52.8309 96.0041 52.4389 96.0041H52.1989C51.8149 96.0041 51.5069 96.1521 51.2749 96.4481C51.0509 96.7441 50.9389 97.1401 50.9389 97.6361V97.8761C50.9389 98.3801 51.0509 98.7801 51.2749 99.0761C51.5069 99.3721 51.8189 99.5201 52.2109 99.5201ZM60.9007 106.6C60.7727 106.6 60.6687 106.584 60.5887 106.552C60.5167 106.52 60.4607 106.468 60.4207 106.396L59.0167 103.996C58.9207 103.82 58.8727 103.688 58.8727 103.6C58.8727 103.472 58.9207 103.332 59.0167 103.18L62.8567 97.1321V96.4001H58.9567C58.7567 96.4001 58.6567 96.3001 58.6567 96.1001V93.7001C58.6567 93.5001 58.7567 93.4001 58.9567 93.4001H64.8607C64.9887 93.4001 65.0887 93.4161 65.1607 93.4481C65.2407 93.4801 65.3007 93.5321 65.3407 93.6041L66.7327 96.0041C66.7727 96.0681 66.8047 96.1361 66.8287 96.2081C66.8607 96.2801 66.8767 96.3521 66.8767 96.4241C66.8767 96.5601 66.8167 96.7201 66.6967 96.9041L62.8327 102.892V103.6H66.7927C66.9927 103.6 67.0927 103.7 67.0927 103.9V106.3C67.0927 106.5 66.9927 106.6 66.7927 106.6H60.9007ZM71.9008 106.6C71.7168 106.6 71.5568 106.532 71.4208 106.396L69.0208 103.996C68.8848 103.868 68.8168 103.708 68.8168 103.516V96.4841C68.8168 96.2921 68.8848 96.1321 69.0208 96.0041L71.4208 93.6041C71.5568 93.4681 71.7168 93.4001 71.9008 93.4001H75.5368C75.7288 93.4001 75.8888 93.4681 76.0168 93.6041L78.4168 96.0041C78.5528 96.1321 78.6208 96.2921 78.6208 96.4841V103.516C78.6208 103.708 78.5528 103.868 78.4168 103.996L76.0168 106.396C75.8888 106.532 75.7288 106.6 75.5368 106.6H71.9008ZM73.3048 103.804H74.1448C74.4008 103.804 74.5768 103.752 74.6728 103.648C74.7688 103.544 74.8168 103.36 74.8168 103.096V96.9041C74.8168 96.6401 74.7688 96.4561 74.6728 96.3521C74.5768 96.2481 74.4008 96.1961 74.1448 96.1961H73.3048C73.0408 96.1961 72.8608 96.2481 72.7648 96.3521C72.6688 96.4561 72.6208 96.6401 72.6208 96.9041V103.096C72.6208 103.36 72.6688 103.544 72.7648 103.648C72.8608 103.752 73.0408 103.804 73.3048 103.804Z" fill="#DD4B1B"/>
<path d="M66.793 60.5917C61.8536 61.7777 56.6971 61.7202 51.7854 60.4244C46.8737 59.1286 42.36 56.6349 38.6485 53.1665C34.937 49.6982 32.1437 45.3636 30.5185 40.5507C28.8934 35.7379 28.4873 30.5972 29.3364 25.5889C29.2092 25.7157 29.0727 25.8329 28.9281 25.9394C27.9162 26.7091 26.6514 26.9946 24.1218 27.5656L21.8271 28.086C12.9372 30.0988 8.49232 31.1035 7.43349 34.504C6.37827 37.9009 9.4066 41.446 15.4669 48.5326L17.0352 50.3647C18.7554 52.3776 19.6191 53.3858 20.0057 54.629C20.3924 55.8757 20.2623 57.22 20.0021 59.905L19.7636 62.3515C18.8493 71.8087 18.3904 76.5355 21.1585 78.6351C23.9266 80.7347 28.0897 78.823 36.4085 74.9888L38.566 73.9987C40.9293 72.9073 42.111 72.3652 43.365 72.3652C44.619 72.3652 45.8007 72.9073 48.1677 73.9987L50.3179 74.9888C58.6403 78.8194 62.8034 80.7347 65.5679 78.6387C68.3397 76.5355 67.8807 71.8087 66.9664 62.3515L66.793 60.5917Z" fill="#F24822"/>
<path opacity="0.5" d="M33.0767 19.5432L31.8914 21.6681C30.5904 24.0026 29.9399 25.1698 28.9281 25.9395C29.0726 25.8311 29.2087 25.7143 29.3364 25.589C28.487 30.5977 28.8932 35.7388 30.5185 40.552C32.1438 45.3652 34.9375 49.7002 38.6494 53.1686C42.3614 56.637 46.8756 59.1306 51.7878 60.4261C56.7001 61.7216 61.8569 61.7785 66.7966 60.5918L66.7243 59.9052C66.4677 57.2202 66.3376 55.8758 66.7243 54.6291C67.111 53.386 67.9711 52.3777 69.6948 50.3649L71.2632 48.5327C77.3234 41.4498 80.3518 37.9047 79.2929 34.5041C78.2377 31.1036 73.7928 30.0953 64.903 28.0861L62.6046 27.5657C60.0786 26.9948 58.8138 26.7093 57.7983 25.9395C56.7865 25.1698 56.136 24.0026 54.8351 21.6681L53.6534 19.5432C49.0747 11.3328 46.7872 7.22754 43.365 7.22754C39.9428 7.22754 37.6553 11.3328 33.0767 19.5432Z" fill="#F24822"/>
</svg>
