<svg width="68" height="68" viewBox="0 0 68 68" fill="none" xmlns="http://www.w3.org/2000/svg">
<path d="M23.8 48.1667L34 37.9667L44.2 48.1667L48.1667 44.2001L37.9667 34.0001L48.1667 23.8001L44.2 19.8334L34 30.0334L23.8 19.8334L19.8333 23.8001L30.0333 34.0001L19.8333 44.2001L23.8 48.1667ZM34 62.3334C30.0805 62.3334 26.3972 61.5892 22.95 60.1007C19.5028 58.6123 16.5042 56.594 13.9542 54.0459C11.4042 51.4978 9.38588 48.4992 7.89933 45.0501C6.41277 41.601 5.66855 37.9176 5.66666 34.0001C5.66477 30.0825 6.40899 26.3992 7.89933 22.9501C9.38966 19.501 11.4079 16.5024 13.9542 13.9542C16.5004 11.4061 19.499 9.38786 22.95 7.89942C26.401 6.41097 30.0843 5.66675 34 5.66675C37.9157 5.66675 41.599 6.41097 45.05 7.89942C48.501 9.38786 51.4996 11.4061 54.0458 13.9542C56.5921 16.5024 58.6113 19.501 60.1035 22.9501C61.5957 26.3992 62.339 30.0825 62.3333 34.0001C62.3277 37.9176 61.5834 41.601 60.1007 45.0501C58.6179 48.4992 56.5996 51.4978 54.0458 54.0459C51.4921 56.594 48.4934 58.6132 45.05 60.1036C41.6065 61.5939 37.9232 62.3372 34 62.3334ZM34 56.6667C40.3278 56.6667 45.6875 54.4709 50.0792 50.0792C54.4708 45.6876 56.6667 40.3279 56.6667 34.0001C56.6667 27.6723 54.4708 22.3126 50.0792 17.9209C45.6875 13.5292 40.3278 11.3334 34 11.3334C27.6722 11.3334 22.3125 13.5292 17.9208 17.9209C13.5292 22.3126 11.3333 27.6723 11.3333 34.0001C11.3333 40.3279 13.5292 45.6876 17.9208 50.0792C22.3125 54.4709 27.6722 56.6667 34 56.6667Z" fill="white"/>
</svg>
