<svg width="162" height="60" viewBox="0 0 162 60" fill="none" xmlns="http://www.w3.org/2000/svg">
<rect width="162" height="60" rx="10" fill="#F24822"/>
<path d="M83.472 26.244C82.88 25.94 82.232 25.676 81.528 25.452C80.824 25.228 80.136 25.116 79.464 25.116C78.536 25.116 77.792 25.332 77.232 25.764C76.688 26.196 76.416 26.772 76.416 27.492C76.416 28.036 76.592 28.5 76.944 28.884C77.296 29.252 77.76 29.572 78.336 29.844C78.912 30.116 79.512 30.372 80.136 30.612C80.68 30.82 81.216 31.052 81.744 31.308C82.272 31.564 82.744 31.884 83.16 32.268C83.592 32.652 83.928 33.124 84.168 33.684C84.424 34.244 84.552 34.94 84.552 35.772C84.552 36.684 84.32 37.516 83.856 38.268C83.408 39.02 82.76 39.612 81.912 40.044C81.064 40.476 80.056 40.692 78.888 40.692C78.12 40.692 77.384 40.604 76.68 40.428C75.992 40.252 75.352 40.028 74.76 39.756C74.168 39.468 73.64 39.172 73.176 38.868L74.208 37.044C74.592 37.316 75.032 37.58 75.528 37.836C76.024 38.076 76.544 38.276 77.088 38.436C77.632 38.58 78.16 38.652 78.672 38.652C79.216 38.652 79.752 38.556 80.28 38.364C80.824 38.156 81.272 37.844 81.624 37.428C81.976 37.012 82.152 36.46 82.152 35.772C82.152 35.18 81.992 34.692 81.672 34.308C81.368 33.908 80.96 33.572 80.448 33.3C79.936 33.012 79.392 32.756 78.816 32.532C78.272 32.324 77.72 32.1 77.16 31.86C76.6 31.604 76.08 31.3 75.6 30.948C75.12 30.58 74.736 30.132 74.448 29.604C74.16 29.076 74.016 28.436 74.016 27.684C74.016 26.772 74.232 25.98 74.664 25.308C75.112 24.62 75.72 24.084 76.488 23.7C77.256 23.3 78.136 23.084 79.128 23.052C80.248 23.052 81.232 23.188 82.08 23.46C82.944 23.732 83.704 24.068 84.36 24.468L83.472 26.244ZM86.7368 40.5L94.3208 22.428H94.4648L102.025 40.5H99.3608L93.6968 26.076L95.3528 24.996L89.0168 40.5H86.7368ZM91.1768 33.924H97.6328L98.4008 35.94H90.5048L91.1768 33.924ZM104.221 23.148L109.933 37.5L108.613 37.236L114.037 23.148H116.749L109.093 41.292L101.461 23.148H104.221ZM120.223 23.148H131.503V25.38H122.551V30.66H130.543V32.892H122.551V38.268H131.839V40.5H120.223V23.148Z" fill="white"/>
<path d="M35.8602 41.6497L23.9024 29.6919L26.8919 26.7024L35.8602 35.6708L55.1082 16.4229L58.0976 19.4123L35.8602 41.6497Z" fill="white"/>
</svg>
